#!OML:ASF X:\2005_08_12_Meinard\c3d\meinard.ASF
:FULLY-SPECIFIED
:DEGREES
2175
root 3.9021 16.6653 -0.0773342 215.315 -82.0471 -226.256
lowerback 41.2514 -0.254672 -5.48577
upperback 4.69621 -3.87534 -1.22596
thorax -14.4295 -1.80158 3.40252
lowerneck 3.63537 -19.5738 -2.37189
upperneck -4.31527 -26.692 22.5953
head 1.60108 -13.9021 6.29055
rclavicle 2.90723e-014 2.48481e-015
rhumerus 5.91625 -23.4683 -9.9031
rradius 60.7952
rwrist -0.274433
rhand 0.61709 -6.52085
rfingers 7.12502
rthumb 26.1813 -34.7353
lclavicle 2.90723e-014 2.48481e-015
lhumerus -19.5484 -16.1104 74.7312
lradius 70.7387
lwrist -185.878
lhand -18.0069 11.1841
lfingers 7.12502
lthumb 8.26364 41.0025
rfemur -199.008 -183.845 183.525
rtibia 51.9154
rfoot 173.058 163.651
rtoes 12.2583
lfemur -182.106 183.03 -195.091
ltibia 36.4108
lfoot -14.6586 8.20153
ltoes 29.0613
2176
root 3.94857 16.6482 -0.0993745 221.017 -82.0616 -231.923
lowerback 41.9844 -0.213069 -4.40097
upperback 4.56982 -3.43075 -1.4923
thorax -14.9388 -1.64021 2.36541
lowerneck 3.51395 -19.8995 -3.97087
upperneck -5.49051 -26.9806 23.1154
head 1.60203 -14.0884 6.58588
rclavicle 4.20802e-014 -3.80176e-015
rhumerus 9.79501 -24.7305 -4.36634
rradius 46.337
rwrist 0.429219
rhand 2.07285 -7.89062
rfingers 7.12502
rthumb 27.5743 -35.8907
lclavicle 4.20802e-014 -3.80176e-015
lhumerus -17.6754 -16.2502 73.1089
lradius 69.802
lwrist -185.378
lhand -17.5457 10.9929
lfingers 7.12502
lthumb 8.7088 40.7932
rfemur -198.883 -184.144 182.974
rtibia 51.7537
rfoot 172.403 163.106
rtoes 12.9569
lfemur -182.687 182.042 -195.185
ltibia 37.0707
lfoot -14.0847 8.03548
ltoes 29.0591
2177
root 3.99346 16.6238 -0.120519 226.006 -82.0221 -237.043
lowerback 42.9244 -0.230065 -3.20246
upperback 4.47423 -3.00966 -1.76573
thorax -15.4606 -1.50872 1.26474
lowerneck 3.13777 -20.1814 -5.42639
upperneck -6.52108 -27.2149 23.288
head 1.61515 -14.2129 6.74316
rclavicle -1.5381e-014 1.88845e-015
rhumerus 13.0932 -25.8198 0.669989
rradius 33.4846
rwrist 1.62776
rhand 3.96661 -11.7785
rfingers 7.12502
rthumb 29.3838 -39.4756
lclavicle -1.5381e-014 1.88845e-015
lhumerus -15.7803 -15.7803 71.5822
lradius 68.4164
lwrist -185.038
lhand -17.1011 10.5732
lfingers 7.12502
lthumb 9.13776 40.3552
rfemur -198.575 -184.596 182.509
rtibia 51.6058
rfoot 171.595 162.453
rtoes 13.3748
lfemur -183.051 181.209 -195.263
ltibia 37.7745
lfoot -13.4292 8.31828
ltoes 28.768
2178
root 4.03314 16.5887 -0.142455 230.699 -81.8568 -242.362
lowerback 44.2773 -0.367034 -1.85989
upperback 4.46861 -2.702 -2.15097
thorax -15.9876 -1.45479 0.0150153
lowerneck 2.72614 -20.4213 -7.56403
upperneck -7.23646 -27.4886 23.5824
head 1.85107 -14.3167 6.95781
rclavicle 1.89839e-014 1.92821e-014
rhumerus 13.0584 -22.1865 7.94476
rradius 25.4691
rwrist -1.69514
rhand 5.99199 -19.1967
rfingers 7.12502
rthumb 31.3157 -46.5375
lclavicle 1.89839e-014 1.92821e-014
lhumerus -13.9268 -14.2067 70.4648
lradius 66.2961
lwrist -185.574
lhand -16.6357 10.2256
lfingers 7.12502
lthumb 9.58683 39.9875
rfemur -197.738 -185.271 182.011
rtibia 51.5089
rfoot 170.517 161.741
rtoes 13.6885
lfemur -182.827 180.462 -195.44
ltibia 38.4921
lfoot -12.8151 8.8013
ltoes 28.5826
2179
root 4.06431 16.5455 -0.168741 234.822 -81.5887 -247.495
lowerback 45.8055 -0.588121 -0.532827
upperback 4.59384 -2.50388 -2.59776
thorax -16.377 -1.46574 -1.24884
lowerneck 2.5118 -20.5819 -9.73859
upperneck -7.89226 -27.6651 23.8651
head 2.06835 -14.375 7.20331
rclavicle 5.76476e-015 1.43125e-014
rhumerus 9.85637 22.1474 30.9874
rradius 26.2347
rwrist -49.2475
rhand -0.060686 -29.5944
rfingers 7.12502
rthumb 25.5322 -57.9035
lclavicle 5.76476e-015 1.43125e-014
lhumerus -12.1555 -11.2733 69.8816
lradius 63.506
lwrist -187.243
lhand -16.1387 10.0606
lfingers 7.12502
lthumb 10.0663 39.7999
rfemur -196.47 -186.102 181.548
rtibia 51.4456
rfoot 169.167 160.993
rtoes 13.822
lfemur -182.132 179.777 -195.634
ltibia 39.2505
lfoot -12.2645 9.3023
ltoes 28.2947
2180
root 4.09557 16.5021 -0.201902 238.324 -81.3993 -251.727
lowerback 46.9594 -0.891353 0.780999
upperback 4.74065 -2.35774 -3.02947
thorax -16.5986 -1.49856 -2.47458
lowerneck 2.55974 -20.6617 -11.0477
upperneck -8.73485 -27.6689 23.8472
head 1.99451 -14.3852 7.36697
rclavicle 8.15017e-015 -9.93923e-015
rhumerus 30.5569 62.1941 66.8624
rradius 29.4365
rwrist -96.1169
rhand -6.12959 -31.097
rfingers 7.12502
rthumb 19.7078 -60.1179
lclavicle 8.15017e-015 -9.93923e-015
lhumerus -10.6109 -7.54833 69.5234
lradius 60.6162
lwrist -189.632
lhand -15.453 9.89559
lfingers 7.12502
lthumb 10.7278 39.6017
rfemur -195.501 -186.956 181.317
rtibia 51.3975
rfoot 167.869 160.124
rtoes 13.9793
lfemur -181.764 179.143 -195.616
ltibia 40.0781
lfoot -11.7364 9.64126
ltoes 27.7558
2181
root 4.13157 16.462 -0.240871 240.221 -81.6146 -254.066
lowerback 48.7698 -1.38908 2.35255
upperback 3.79985 -2.2236 -3.36281
thorax -16.6229 -1.5232 -3.68437
lowerneck 2.56307 -20.7064 -11.8939
upperneck -9.37661 -27.6405 23.6104
head 1.87963 -14.3695 7.42486
rclavicle 7.95139e-016 9.14409e-015
rhumerus 71.9479 72.1058 116.216
rradius 33.1631
rwrist -116.078
rhand -7.65776 -31.4388
rfingers 7.12502
rthumb 18.2381 -60.6038
lclavicle 7.95139e-016 9.14409e-015
lhumerus -9.46458 -3.80852 69.056
lradius 58.1025
lwrist -192.017
lhand -14.5465 9.6094
lfingers 7.12502
lthumb 11.6021 39.2682
rfemur -194.815 -187.78 181.719
rtibia 51.3403
rfoot 166.824 159.165
rtoes 14.1336
lfemur -181.732 178.643 -195.02
ltibia 40.9774
lfoot -11.3258 9.71322
ltoes 27.1223
2182
root 4.16616 16.4204 -0.283956 241.543 -81.9795 -255.825
lowerback 49.8016 -1.92544 3.92177
upperback 3.81966 -2.0908 -3.62728
thorax -16.7986 -1.56463 -4.79019
lowerneck 2.38314 -20.7937 -12.6461
upperneck -9.64402 -27.7153 23.3227
head 1.89678 -14.3759 7.40144
rclavicle -7.15625e-015 -1.35174e-014
rhumerus 88.9793 72.4819 137.567
rradius 35.4111
rwrist -121.064
rhand -8.08414 -32.1118
rfingers 7.12502
rthumb 17.8279 -61.3146
lclavicle -7.15625e-015 -1.35174e-014
lhumerus -8.75763 -0.900454 68.2702
lradius 56.263
lwrist -193.664
lhand -13.4623 8.99656
lfingers 7.12502
lthumb 12.6476 38.5936
rfemur -194.137 -188.463 182.358
rtibia 51.2828
rfoot 166.067 158.323
rtoes 14.5581
lfemur -181.718 178.233 -194.213
ltibia 41.925
lfoot -11.1476 9.33397
ltoes 26.6534
2183
root 4.19503 16.379 -0.328856 243.683 -82.1875 -258.275
lowerback 50.5857 -2.34065 5.02765
upperback 3.87549 -2.0239 -3.82153
thorax -16.8639 -1.6043 -5.56077
lowerneck 2.07159 -20.9024 -13.0463
upperneck -9.73749 -27.8177 22.9126
head 1.91933 -14.3886 7.28658
rclavicle -1.27222e-014 -1.55052e-014
rhumerus 82.9027 73.6815 133.242
rradius 35.5212
rwrist -117.621
rhand -7.84994 -32.726
rfingers 7.12502
rthumb 18.0532 -61.9082
lclavicle -1.27222e-014 -1.55052e-014
lhumerus -8.52569 0.927918 67.0698
lradius 55.0735
lwrist -194.306
lhand -12.3801 8.28428
lfingers 7.12502
lthumb 13.6907 37.814
rfemur -193.628 -188.866 182.75
rtibia 51.2615
rfoot 165.384 157.713
rtoes 14.7973
lfemur -181.799 177.879 -193.609
ltibia 42.8336
lfoot -11.1881 8.58348
ltoes 26.4932
2184
root 4.21677 16.3386 -0.375972 245.974 -82.3826 -260.792
lowerback 51.1986 -2.66472 5.78741
upperback 3.94322 -2.00358 -3.90352
thorax -16.8724 -1.64035 -6.01374
lowerneck 1.67314 -21.0183 -13.049
upperneck -9.73107 -27.919 22.329
head 1.89931 -14.4006 7.07955
rclavicle -4.37326e-015 -3.33958e-014
rhumerus 61.1648 73.8566 111.613
rradius 34.3766
rwrist -109.447
rhand -7.31162 -32.7363
rfingers 7.12502
rthumb 18.5711 -61.8698
lclavicle -4.37326e-015 -3.33958e-014
lhumerus -8.77591 2.14814 65.6277
lradius 54.384
lwrist -194.323
lhand -11.6938 7.7502
lfingers 7.12502
lthumb 14.352 37.2341
rfemur -193.231 -189.039 183.112
rtibia 51.2953
rfoot 164.804 157.329
rtoes 15.1207
lfemur -181.875 177.576 -193.017
ltibia 43.6218
lfoot -11.3877 7.62522
ltoes 26.5785
2185
root 4.22998 16.3011 -0.423858 248.366 -82.5296 -263.353
lowerback 51.6067 -2.91993 6.26919
upperback 4.06419 -2.04679 -3.92415
thorax -16.7848 -1.68339 -6.23206
lowerneck 1.36532 -21.0992 -13.0295
upperneck -9.76161 -27.9829 21.9102
head 1.8732 -14.408 6.93129
rclavicle -1.53064e-014 0
rhumerus 32.7035 68.5469 81.6114
rradius 32.5476
rwrist -96.9295
rhand -6.6257 -32.4815
rfingers 7.12502
rthumb 19.2308 -61.5507
lclavicle -1.53064e-014 0
lhumerus -9.44927 2.7139 64.0245
lradius 54.1566
lwrist -193.79
lhand -11.509 7.33945
lfingers 7.12502
lthumb 14.5301 36.8106
rfemur -192.913 -189.058 183.407
rtibia 51.4004
rfoot 164.213 157.071
rtoes 15.2791
lfemur -181.914 177.301 -192.475
ltibia 44.2541
lfoot -11.6725 6.64165
ltoes 26.8855
